<svg xmlns="http://www.w3.org/2000/svg" xmlns:xlink="http://www.w3.org/1999/xlink" width="50" zoomAndPan="magnify" viewBox="0 0 37.5 37.499999" height="50" preserveAspectRatio="xMidYMid meet" version="1.0"><defs><g/><clipPath id="4f30041f10"><path d="M 10.261719 11.429688 L 13 11.429688 L 13 18 L 10.261719 18 Z M 10.261719 11.429688 " clip-rule="nonzero"/></clipPath><clipPath id="2e8c01bd1a"><path d="M 11 14 L 13 14 L 13 18.929688 L 11 18.929688 Z M 11 14 " clip-rule="nonzero"/></clipPath><clipPath id="dc738f3001"><path d="M 13 11.429688 L 27.511719 11.429688 L 27.511719 18.929688 L 13 18.929688 Z M 13 11.429688 " clip-rule="nonzero"/></clipPath></defs><g clip-path="url(#4f30041f10)"><path fill="#d9d9d9" d="M 12.953125 11.433594 L 10.949219 17.210938 L 10.261719 17.027344 Z M 12.953125 11.433594 " fill-opacity="1" fill-rule="evenodd"/></g><path fill="#d9d9d9" d="M 11.355469 17.679688 L 11.011719 17.679688 L 12.480469 14.148438 Z M 11.355469 17.679688 " fill-opacity="1" fill-rule="evenodd"/><g clip-path="url(#2e8c01bd1a)"><path fill="#d9d9d9" d="M 12.613281 14.574219 L 11.878906 18.214844 L 11.582031 18.214844 Z M 12.613281 14.574219 " fill-opacity="1" fill-rule="evenodd"/></g><path fill="#d9d9d9" d="M 12.960938 15.179688 L 13.328125 15.179688 L 13.328125 15.925781 L 12.960938 15.925781 Z M 12.960938 15.179688 " fill-opacity="1" fill-rule="evenodd"/><path fill="#d9d9d9" d="M 13.570312 15.179688 L 13.9375 15.179688 L 13.9375 15.925781 L 13.570312 15.925781 Z M 13.570312 15.179688 " fill-opacity="1" fill-rule="evenodd"/><path fill="#d9d9d9" d="M 12.960938 14.246094 L 13.328125 14.246094 L 13.328125 14.992188 L 12.960938 14.992188 Z M 12.960938 14.246094 " fill-opacity="1" fill-rule="evenodd"/><path fill="#d9d9d9" d="M 13.570312 14.246094 L 13.9375 14.246094 L 13.9375 14.992188 L 13.570312 14.992188 Z M 13.570312 14.246094 " fill-opacity="1" fill-rule="evenodd"/><g clip-path="url(#dc738f3001)"><path fill="#1fa2c5" d="M 25.941406 17.058594 L 16.609375 17.058594 L 13.15625 11.445312 L 24.339844 11.445312 L 24.84375 12.335938 L 21.035156 12.335938 L 21.960938 13.019531 L 21.746094 13.589844 L 25.550781 13.589844 L 27.511719 17.058594 L 26.511719 17.058594 L 27.125 18.148438 L 25.757812 18.148438 L 26.199219 18.929688 L 15.40625 18.929688 L 14.964844 16.6875 L 15.734375 18.53125 L 25.40625 18.53125 L 25.191406 18.148438 L 15.933594 18.148438 L 14.554688 14.9375 L 16.261719 17.75 L 26.332031 17.75 Z M 25.941406 17.058594 " fill-opacity="1" fill-rule="evenodd"/></g><g fill="#d9d9d9" fill-opacity="1"><g transform="translate(9.020469, 22.885351)"><g/></g></g><g fill="#d9d9d9" fill-opacity="1"><g transform="translate(9.955626, 22.885351)"><g><path d="M 0.347656 0 L 1.394531 0 C 1.851562 0 2.269531 -0.28125 2.269531 -0.78125 C 2.269531 -1.046875 2.082031 -1.339844 1.839844 -1.4375 C 1.992188 -1.519531 2.136719 -1.71875 2.136719 -1.960938 C 2.136719 -2.5 1.6875 -2.6875 1.277344 -2.6875 L 0.347656 -2.6875 Z M 0.828125 -1.605469 L 0.828125 -2.25 L 1.285156 -2.25 C 1.515625 -2.25 1.695312 -2.144531 1.695312 -1.9375 C 1.695312 -1.671875 1.511719 -1.605469 1.324219 -1.605469 Z M 0.828125 -0.460938 L 0.828125 -1.1875 L 1.382812 -1.1875 C 1.636719 -1.1875 1.792969 -1.023438 1.792969 -0.832031 C 1.792969 -0.578125 1.648438 -0.460938 1.402344 -0.460938 Z M 0.828125 -0.460938 "/></g></g></g><g fill="#d9d9d9" fill-opacity="1"><g transform="translate(12.377326, 22.885351)"><g><path d="M 1.070312 0.0390625 C 1.65625 0.0390625 2.042969 -0.417969 2.042969 -0.953125 C 2.042969 -1.492188 1.65625 -1.9375 1.070312 -1.9375 C 0.484375 -1.9375 0.0976562 -1.492188 0.0976562 -0.953125 C 0.0976562 -0.417969 0.484375 0.0390625 1.070312 0.0390625 Z M 1.070312 -0.359375 C 0.71875 -0.359375 0.578125 -0.644531 0.578125 -0.953125 C 0.578125 -1.265625 0.71875 -1.539062 1.070312 -1.539062 C 1.421875 -1.539062 1.5625 -1.265625 1.5625 -0.953125 C 1.5625 -0.644531 1.421875 -0.359375 1.070312 -0.359375 Z M 1.070312 -0.359375 "/></g></g></g><g fill="#d9d9d9" fill-opacity="1"><g transform="translate(14.5215, 22.885351)"><g><path d="M 1.070312 0.0390625 C 1.65625 0.0390625 2.042969 -0.417969 2.042969 -0.953125 C 2.042969 -1.492188 1.65625 -1.9375 1.070312 -1.9375 C 0.484375 -1.9375 0.0976562 -1.492188 0.0976562 -0.953125 C 0.0976562 -0.417969 0.484375 0.0390625 1.070312 0.0390625 Z M 1.070312 -0.359375 C 0.71875 -0.359375 0.578125 -0.644531 0.578125 -0.953125 C 0.578125 -1.265625 0.71875 -1.539062 1.070312 -1.539062 C 1.421875 -1.539062 1.5625 -1.265625 1.5625 -0.953125 C 1.5625 -0.644531 1.421875 -0.359375 1.070312 -0.359375 Z M 1.070312 -0.359375 "/></g></g></g><g fill="#d9d9d9" fill-opacity="1"><g transform="translate(16.665674, 22.885351)"><g><path d="M 0.28125 0 L 0.742188 0 L 0.742188 -0.558594 L 1.035156 -0.878906 L 1.59375 0 L 2.140625 0 L 1.351562 -1.164062 L 2.0625 -1.898438 L 1.460938 -1.898438 L 0.742188 -1.109375 L 0.742188 -2.6875 L 0.28125 -2.6875 Z M 0.28125 0 "/></g></g></g><g fill="#d9d9d9" fill-opacity="1"><g transform="translate(18.790839, 22.885351)"><g/></g></g><g fill="#d9d9d9" fill-opacity="1"><g transform="translate(19.726064, 22.885351)"><g><path d="M 1.113281 0.03125 C 1.628906 0.03125 2.046875 -0.277344 2.046875 -0.785156 C 2.046875 -1.675781 0.746094 -1.503906 0.746094 -2.007812 C 0.746094 -2.179688 0.894531 -2.296875 1.085938 -2.296875 C 1.265625 -2.296875 1.425781 -2.191406 1.519531 -2.007812 L 1.921875 -2.253906 C 1.734375 -2.582031 1.433594 -2.726562 1.101562 -2.726562 C 0.648438 -2.726562 0.265625 -2.460938 0.265625 -1.984375 C 0.265625 -1.109375 1.566406 -1.296875 1.566406 -0.738281 C 1.566406 -0.550781 1.410156 -0.398438 1.121094 -0.398438 C 0.835938 -0.398438 0.597656 -0.546875 0.566406 -0.878906 L 0.0859375 -0.757812 C 0.171875 -0.230469 0.640625 0.03125 1.113281 0.03125 Z M 1.113281 0.03125 "/></g></g></g><g fill="#d9d9d9" fill-opacity="1"><g transform="translate(21.887346, 22.885351)"><g><path d="M 0.28125 0 L 0.75 0 L 0.75 -0.960938 C 0.75 -1.277344 0.890625 -1.519531 1.1875 -1.519531 C 1.46875 -1.519531 1.53125 -1.316406 1.53125 -1.082031 L 1.53125 0 L 2.003906 0 L 2.003906 -1.140625 C 2.003906 -1.539062 1.796875 -1.9375 1.300781 -1.9375 C 1.113281 -1.9375 0.902344 -1.867188 0.75 -1.679688 L 0.75 -2.6875 L 0.28125 -2.6875 Z M 0.28125 0 "/></g></g></g><g fill="#d9d9d9" fill-opacity="1"><g transform="translate(24.109455, 22.885351)"><g><path d="M 1.070312 0.0390625 C 1.65625 0.0390625 2.042969 -0.417969 2.042969 -0.953125 C 2.042969 -1.492188 1.65625 -1.9375 1.070312 -1.9375 C 0.484375 -1.9375 0.0976562 -1.492188 0.0976562 -0.953125 C 0.0976562 -0.417969 0.484375 0.0390625 1.070312 0.0390625 Z M 1.070312 -0.359375 C 0.71875 -0.359375 0.578125 -0.644531 0.578125 -0.953125 C 0.578125 -1.265625 0.71875 -1.539062 1.070312 -1.539062 C 1.421875 -1.539062 1.5625 -1.265625 1.5625 -0.953125 C 1.5625 -0.644531 1.421875 -0.359375 1.070312 -0.359375 Z M 1.070312 -0.359375 "/></g></g></g><g fill="#d9d9d9" fill-opacity="1"><g transform="translate(26.253629, 22.885351)"><g><path d="M 0.28125 0.832031 L 0.75 0.832031 L 0.75 -0.191406 C 0.882812 -0.0273438 1.09375 0.0390625 1.292969 0.0390625 C 1.816406 0.0390625 2.105469 -0.425781 2.105469 -0.949219 C 2.105469 -1.480469 1.816406 -1.9375 1.285156 -1.9375 C 1.082031 -1.9375 0.882812 -1.871094 0.75 -1.710938 L 0.75 -1.898438 L 0.28125 -1.898438 Z M 1.171875 -0.390625 C 0.855469 -0.390625 0.710938 -0.632812 0.710938 -0.949219 C 0.710938 -1.269531 0.855469 -1.523438 1.171875 -1.523438 C 1.492188 -1.523438 1.636719 -1.269531 1.636719 -0.949219 C 1.636719 -0.632812 1.492188 -0.390625 1.171875 -0.390625 Z M 1.171875 -0.390625 "/></g></g></g></svg>