<svg xmlns="http://www.w3.org/2000/svg" xmlns:xlink="http://www.w3.org/1999/xlink" width="80" 
zoomAndPan="magnify" viewBox="0 0 60 30.000001" height="40" preserveAspectRatio="xMidYMid meet" version="1.0">
<defs>
<clipPath id="909f9227a5"><path d="M 8.1875 5.234375 L 15 5.234375 L 15 20 L 8.1875 20 Z M 8.1875 5.234375 " clip-rule="nonzero"/>
</clipPath><clipPath id="645e39a3e3"><path d="M 15 5.234375 L 51.734375 5.234375 L 51.734375 24.105469 L 15 24.105469 Z M 15 5.234375 " clip-rule="nonzero"/>
</clipPath></defs><g clip-path="url(#909f9227a5)"><path fill="#d9d9d9" d="M 14.980469 5.238281 L 9.925781 19.773438 L 8.1875 19.3125 Z M 14.980469 5.238281 " 
fill-opacity="1" fill-rule="evenodd"/></g>
<path fill="#d9d9d9" d="M 10.949219 20.953125 L 10.082031 20.953125 L 13.78125 12.070312 Z M 10.949219 20.953125 " fill-opacity="1" fill-rule="evenodd"/><path fill="#d9d9d9" d="M 14.121094 13.148438 L 12.273438 22.300781 L 11.515625 22.300781 Z M 14.121094 13.148438 " fill-opacity="1" fill-rule="evenodd"/><path fill="#d9d9d9" d="M 15 14.667969 L 15.921875 14.667969 L 15.921875 16.542969 L 15 16.542969 Z M 15 14.667969 " fill-opacity="1" fill-rule="evenodd"/><path fill="#d9d9d9" d="M 16.539062 14.667969 L 17.460938 14.667969 L 17.460938 16.542969 L 16.539062 16.542969 Z M 16.539062 14.667969 " fill-opacity="1" fill-rule="evenodd"/><path fill="#d9d9d9" d="M 15 12.320312 L 15.921875 12.320312 L 15.921875 14.199219 L 15 14.199219 Z M 15 12.320312 " fill-opacity="1" fill-rule="evenodd"/><path fill="#d9d9d9" d="M 16.539062 12.320312 L 17.460938 12.320312 L 17.460938 14.199219 L 16.539062 14.199219 Z M 16.539062 12.320312 " fill-opacity="1" fill-rule="evenodd"/><g clip-path="url(#645e39a3e3)"><path fill="#1fa2c5" d="M 47.769531 19.398438 L 24.210938 19.398438 L 15.488281 5.269531 L 43.726562 5.269531 L 45 7.511719 L 35.386719 7.511719 L 37.726562 9.234375 L 37.171875 10.664062 L 46.785156 10.664062 L 51.734375 19.398438 L 49.203125 19.398438 L 50.757812 22.136719 L 47.308594 22.136719 L 48.425781 24.105469 L 21.171875 24.105469 L 20.058594 18.464844 L 22.003906 23.101562 L 46.421875 23.101562 L 45.871094 22.136719 L 22.5 22.136719 L 19.027344 14.054688 L 23.332031 21.132812 L 48.753906 21.132812 Z M 47.769531 19.398438 " fill-opacity="1" fill-rule="evenodd"/></g></svg>