<svg xmlns="http://www.w3.org/2000/svg" xmlns:xlink="http://www.w3.org/1999/xlink" width="80" zoomAndPan="magnify" viewBox="0 0 60 30.000001" height="40" preserveAspectRatio="xMidYMid meet" version="1.0"><defs><g/><clipPath id="e0fa1b2c86"><path d="M 11.917969 2.902344 L 18 2.902344 L 18 15 L 11.917969 15 Z M 11.917969 2.902344 " clip-rule="nonzero"/></clipPath><clipPath id="04dc604a63"><path d="M 18 2.902344 L 48.207031 2.902344 L 48.207031 18.144531 L 18 18.144531 Z M 18 2.902344 " clip-rule="nonzero"/></clipPath></defs><g clip-path="url(#e0fa1b2c86)"><path fill="#d9d9d9" d="M 17.582031 2.902344 L 13.363281 14.644531 L 11.917969 14.273438 Z M 17.582031 2.902344 " fill-opacity="1" fill-rule="evenodd"/></g><path fill="#d9d9d9" d="M 14.21875 15.597656 L 13.496094 15.597656 L 16.582031 8.421875 Z M 14.21875 15.597656 " fill-opacity="1" fill-rule="evenodd"/><path fill="#d9d9d9" d="M 16.863281 9.292969 L 15.320312 16.6875 L 14.691406 16.6875 Z M 16.863281 9.292969 " fill-opacity="1" fill-rule="evenodd"/><path fill="#d9d9d9" d="M 17.597656 10.519531 L 18.363281 10.519531 L 18.363281 12.035156 L 17.597656 12.035156 Z M 17.597656 10.519531 " fill-opacity="1" fill-rule="evenodd"/><path fill="#d9d9d9" d="M 18.878906 10.519531 L 19.644531 10.519531 L 19.644531 12.035156 L 18.878906 12.035156 Z M 18.878906 10.519531 " fill-opacity="1" fill-rule="evenodd"/><path fill="#d9d9d9" d="M 17.597656 8.625 L 18.363281 8.625 L 18.363281 10.140625 L 17.597656 10.140625 Z M 17.597656 8.625 " fill-opacity="1" fill-rule="evenodd"/><path fill="#d9d9d9" d="M 18.878906 8.625 L 19.644531 8.625 L 19.644531 10.140625 L 18.878906 10.140625 Z M 18.878906 8.625 " fill-opacity="1" fill-rule="evenodd"/><g clip-path="url(#04dc604a63)"><path fill="#1fa2c5" d="M 44.902344 14.34375 L 25.269531 14.34375 L 18 2.929688 L 41.535156 2.929688 L 42.59375 4.742188 L 34.582031 4.742188 L 36.53125 6.132812 L 36.074219 7.289062 L 44.082031 7.289062 L 48.207031 14.34375 L 46.097656 14.34375 L 47.390625 16.554688 L 44.519531 16.554688 L 45.449219 18.144531 L 22.738281 18.144531 L 21.808594 13.585938 L 23.429688 17.335938 L 43.777344 17.335938 L 43.320312 16.554688 L 23.84375 16.554688 L 20.949219 10.027344 L 24.539062 15.742188 L 45.722656 15.742188 Z M 44.902344 14.34375 " fill-opacity="1" fill-rule="evenodd"/></g><g fill="#d9d9d9" fill-opacity="1"><g transform="translate(16.743143, 24.561403)"><g/></g></g><g fill="#d9d9d9" fill-opacity="1"><g transform="translate(18.34816, 24.561403)"><g><path d="M 2.34375 -1.921875 C 2.539062 -1.828125 2.691406 -1.707031 2.796875 -1.5625 C 2.898438 -1.425781 2.953125 -1.265625 2.953125 -1.078125 C 2.953125 -0.703125 2.832031 -0.425781 2.59375 -0.25 C 2.351562 -0.0820312 2.050781 0 1.6875 0 L 0.46875 0 L 0.46875 -3.640625 L 1.546875 -3.640625 C 1.929688 -3.640625 2.234375 -3.5625 2.453125 -3.40625 C 2.671875 -3.25 2.78125 -3.023438 2.78125 -2.734375 C 2.78125 -2.546875 2.742188 -2.382812 2.671875 -2.25 C 2.597656 -2.113281 2.488281 -2.003906 2.34375 -1.921875 Z M 1.1875 -2.15625 L 1.625 -2.15625 C 1.757812 -2.15625 1.863281 -2.191406 1.9375 -2.265625 C 2.007812 -2.347656 2.046875 -2.453125 2.046875 -2.578125 C 2.046875 -2.703125 2.003906 -2.796875 1.921875 -2.859375 C 1.835938 -2.921875 1.722656 -2.953125 1.578125 -2.953125 L 1.1875 -2.953125 Z M 1.65625 -0.671875 C 1.820312 -0.671875 1.957031 -0.703125 2.0625 -0.765625 C 2.164062 -0.835938 2.21875 -0.941406 2.21875 -1.078125 C 2.21875 -1.335938 2.007812 -1.46875 1.59375 -1.46875 L 1.1875 -1.46875 L 1.1875 -0.671875 Z M 1.65625 -0.671875 "/></g></g></g><g fill="#d9d9d9" fill-opacity="1"><g transform="translate(21.551099, 24.561403)"><g><path d="M 0.1875 -1.109375 C 0.1875 -1.328125 0.238281 -1.523438 0.34375 -1.703125 C 0.445312 -1.878906 0.59375 -2.015625 0.78125 -2.109375 C 0.96875 -2.210938 1.1875 -2.265625 1.4375 -2.265625 C 1.675781 -2.265625 1.882812 -2.210938 2.0625 -2.109375 C 2.25 -2.015625 2.390625 -1.878906 2.484375 -1.703125 C 2.585938 -1.523438 2.640625 -1.328125 2.640625 -1.109375 C 2.640625 -0.890625 2.585938 -0.691406 2.484375 -0.515625 C 2.390625 -0.335938 2.25 -0.195312 2.0625 -0.09375 C 1.882812 0.0078125 1.671875 0.0625 1.421875 0.0625 C 1.179688 0.0625 0.96875 0.015625 0.78125 -0.078125 C 0.59375 -0.171875 0.445312 -0.304688 0.34375 -0.484375 C 0.238281 -0.660156 0.1875 -0.867188 0.1875 -1.109375 Z M 0.890625 -1.109375 C 0.890625 -0.929688 0.9375 -0.785156 1.03125 -0.671875 C 1.132812 -0.554688 1.257812 -0.5 1.40625 -0.5 C 1.570312 -0.5 1.703125 -0.554688 1.796875 -0.671875 C 1.890625 -0.785156 1.9375 -0.929688 1.9375 -1.109375 C 1.9375 -1.273438 1.890625 -1.414062 1.796875 -1.53125 C 1.703125 -1.644531 1.570312 -1.703125 1.40625 -1.703125 C 1.257812 -1.703125 1.132812 -1.644531 1.03125 -1.53125 C 0.9375 -1.414062 0.890625 -1.273438 0.890625 -1.109375 Z M 0.890625 -1.109375 "/></g></g></g><g fill="#d9d9d9" fill-opacity="1"><g transform="translate(24.377806, 24.561403)"><g><path d="M 0.1875 -1.109375 C 0.1875 -1.328125 0.238281 -1.523438 0.34375 -1.703125 C 0.445312 -1.878906 0.59375 -2.015625 0.78125 -2.109375 C 0.96875 -2.210938 1.1875 -2.265625 1.4375 -2.265625 C 1.675781 -2.265625 1.882812 -2.210938 2.0625 -2.109375 C 2.25 -2.015625 2.390625 -1.878906 2.484375 -1.703125 C 2.585938 -1.523438 2.640625 -1.328125 2.640625 -1.109375 C 2.640625 -0.890625 2.585938 -0.691406 2.484375 -0.515625 C 2.390625 -0.335938 2.25 -0.195312 2.0625 -0.09375 C 1.882812 0.0078125 1.671875 0.0625 1.421875 0.0625 C 1.179688 0.0625 0.96875 0.015625 0.78125 -0.078125 C 0.59375 -0.171875 0.445312 -0.304688 0.34375 -0.484375 C 0.238281 -0.660156 0.1875 -0.867188 0.1875 -1.109375 Z M 0.890625 -1.109375 C 0.890625 -0.929688 0.9375 -0.785156 1.03125 -0.671875 C 1.132812 -0.554688 1.257812 -0.5 1.40625 -0.5 C 1.570312 -0.5 1.703125 -0.554688 1.796875 -0.671875 C 1.890625 -0.785156 1.9375 -0.929688 1.9375 -1.109375 C 1.9375 -1.273438 1.890625 -1.414062 1.796875 -1.53125 C 1.703125 -1.644531 1.570312 -1.703125 1.40625 -1.703125 C 1.257812 -1.703125 1.132812 -1.644531 1.03125 -1.53125 C 0.9375 -1.414062 0.890625 -1.273438 0.890625 -1.109375 Z M 0.890625 -1.109375 "/></g></g></g><g fill="#d9d9d9" fill-opacity="1"><g transform="translate(27.204513, 24.561403)"><g><path d="M 1.25 -0.90625 L 1.046875 -0.765625 L 1.046875 0 L 0.359375 0 L 0.359375 -3.90625 L 1.046875 -3.90625 L 1.046875 -1.46875 L 2.078125 -2.21875 L 2.5 -1.84375 L 1.734375 -1.265625 L 2.578125 0 L 1.765625 0 Z M 1.25 -0.90625 "/></g></g></g><g fill="#d9d9d9" fill-opacity="1"><g transform="translate(29.907458, 24.561403)"><g/></g></g><g fill="#d9d9d9" fill-opacity="1"><g transform="translate(31.516353, 24.561403)"><g><path d="M 2.421875 -2.765625 C 2.097656 -2.941406 1.820312 -3.03125 1.59375 -3.03125 C 1.4375 -3.03125 1.3125 -3 1.21875 -2.9375 C 1.132812 -2.875 1.09375 -2.78125 1.09375 -2.65625 C 1.09375 -2.539062 1.15625 -2.4375 1.28125 -2.34375 C 1.40625 -2.257812 1.570312 -2.175781 1.78125 -2.09375 C 1.957031 -2.03125 2.101562 -1.957031 2.21875 -1.875 C 2.34375 -1.800781 2.445312 -1.691406 2.53125 -1.546875 C 2.613281 -1.398438 2.65625 -1.21875 2.65625 -1 C 2.65625 -0.8125 2.601562 -0.640625 2.5 -0.484375 C 2.40625 -0.328125 2.265625 -0.195312 2.078125 -0.09375 C 1.890625 0 1.664062 0.046875 1.40625 0.046875 C 1.1875 0.046875 0.96875 0.015625 0.75 -0.046875 C 0.539062 -0.117188 0.34375 -0.222656 0.15625 -0.359375 L 0.46875 -0.90625 C 0.59375 -0.8125 0.738281 -0.734375 0.90625 -0.671875 C 1.070312 -0.617188 1.21875 -0.59375 1.34375 -0.59375 C 1.488281 -0.59375 1.617188 -0.625 1.734375 -0.6875 C 1.847656 -0.75 1.90625 -0.851562 1.90625 -1 C 1.90625 -1.1875 1.726562 -1.351562 1.375 -1.5 C 1.164062 -1.582031 0.992188 -1.660156 0.859375 -1.734375 C 0.722656 -1.804688 0.601562 -1.914062 0.5 -2.0625 C 0.394531 -2.207031 0.34375 -2.382812 0.34375 -2.59375 C 0.34375 -2.90625 0.445312 -3.15625 0.65625 -3.34375 C 0.863281 -3.539062 1.140625 -3.648438 1.484375 -3.671875 C 1.753906 -3.671875 1.976562 -3.640625 2.15625 -3.578125 C 2.34375 -3.515625 2.519531 -3.425781 2.6875 -3.3125 Z M 2.421875 -2.765625 "/></g></g></g><g fill="#d9d9d9" fill-opacity="1"><g transform="translate(34.402463, 24.561403)"><g><path d="M 1.859375 -2.265625 C 2.066406 -2.265625 2.238281 -2.203125 2.375 -2.078125 C 2.507812 -1.960938 2.578125 -1.8125 2.578125 -1.625 L 2.578125 0 L 1.890625 0 L 1.890625 -1.359375 C 1.878906 -1.566406 1.773438 -1.671875 1.578125 -1.671875 C 1.421875 -1.671875 1.289062 -1.597656 1.1875 -1.453125 C 1.09375 -1.304688 1.046875 -1.113281 1.046875 -0.875 L 1.046875 0 L 0.359375 0 L 0.359375 -3.90625 L 1.03125 -3.90625 L 1.03125 -1.828125 C 1.113281 -1.960938 1.222656 -2.066406 1.359375 -2.140625 C 1.503906 -2.222656 1.671875 -2.265625 1.859375 -2.265625 Z M 1.859375 -2.265625 "/></g></g></g><g fill="#d9d9d9" fill-opacity="1"><g transform="translate(37.34303, 24.561403)"><g><path d="M 0.1875 -1.109375 C 0.1875 -1.328125 0.238281 -1.523438 0.34375 -1.703125 C 0.445312 -1.878906 0.59375 -2.015625 0.78125 -2.109375 C 0.96875 -2.210938 1.1875 -2.265625 1.4375 -2.265625 C 1.675781 -2.265625 1.882812 -2.210938 2.0625 -2.109375 C 2.25 -2.015625 2.390625 -1.878906 2.484375 -1.703125 C 2.585938 -1.523438 2.640625 -1.328125 2.640625 -1.109375 C 2.640625 -0.890625 2.585938 -0.691406 2.484375 -0.515625 C 2.390625 -0.335938 2.25 -0.195312 2.0625 -0.09375 C 1.882812 0.0078125 1.671875 0.0625 1.421875 0.0625 C 1.179688 0.0625 0.96875 0.015625 0.78125 -0.078125 C 0.59375 -0.171875 0.445312 -0.304688 0.34375 -0.484375 C 0.238281 -0.660156 0.1875 -0.867188 0.1875 -1.109375 Z M 0.890625 -1.109375 C 0.890625 -0.929688 0.9375 -0.785156 1.03125 -0.671875 C 1.132812 -0.554688 1.257812 -0.5 1.40625 -0.5 C 1.570312 -0.5 1.703125 -0.554688 1.796875 -0.671875 C 1.890625 -0.785156 1.9375 -0.929688 1.9375 -1.109375 C 1.9375 -1.273438 1.890625 -1.414062 1.796875 -1.53125 C 1.703125 -1.644531 1.570312 -1.703125 1.40625 -1.703125 C 1.257812 -1.703125 1.132812 -1.644531 1.03125 -1.53125 C 0.9375 -1.414062 0.890625 -1.273438 0.890625 -1.109375 Z M 0.890625 -1.109375 "/></g></g></g><g fill="#d9d9d9" fill-opacity="1"><g transform="translate(40.169737, 24.561403)"><g><path d="M 1.859375 -2.28125 C 2.054688 -2.28125 2.234375 -2.226562 2.390625 -2.125 C 2.546875 -2.03125 2.671875 -1.894531 2.765625 -1.71875 C 2.859375 -1.539062 2.90625 -1.332031 2.90625 -1.09375 C 2.90625 -0.851562 2.851562 -0.644531 2.75 -0.46875 C 2.644531 -0.300781 2.503906 -0.171875 2.328125 -0.078125 C 2.148438 0.015625 1.945312 0.0625 1.71875 0.0625 C 1.59375 0.0625 1.46875 0.0390625 1.34375 0 C 1.21875 -0.0507812 1.117188 -0.117188 1.046875 -0.203125 L 1.046875 1.046875 L 0.359375 1.046875 L 0.359375 -2.21875 L 0.953125 -2.21875 L 1.015625 -1.953125 C 1.273438 -2.171875 1.554688 -2.28125 1.859375 -2.28125 Z M 1.578125 -0.484375 C 1.742188 -0.484375 1.890625 -0.539062 2.015625 -0.65625 C 2.140625 -0.769531 2.203125 -0.910156 2.203125 -1.078125 C 2.203125 -1.253906 2.144531 -1.398438 2.03125 -1.515625 C 1.925781 -1.628906 1.789062 -1.6875 1.625 -1.6875 C 1.488281 -1.6875 1.375 -1.660156 1.28125 -1.609375 C 1.1875 -1.554688 1.109375 -1.472656 1.046875 -1.359375 L 1.046875 -0.828125 C 1.085938 -0.722656 1.15625 -0.640625 1.25 -0.578125 C 1.34375 -0.515625 1.453125 -0.484375 1.578125 -0.484375 Z M 1.578125 -0.484375 "/></g></g></g></svg>