<svg xmlns="http://www.w3.org/2000/svg" xmlns:xlink="http://www.w3.org/1999/xlink" width="150" zoomAndPan="magnify" viewBox="0 0 112.5 60" height="80" preserveAspectRatio="xMidYMid meet" version="1.0"><defs><g/><clipPath id="90bc94cc9b"><path d="M 12.894531 2.5625 L 27 2.5625 L 27 31 L 12.894531 31 Z M 12.894531 2.5625 " clip-rule="nonzero"/></clipPath><clipPath id="7e06e26167"><path d="M 27 2.5625 L 99.894531 2.5625 L 99.894531 39.3125 L 27 39.3125 Z M 27 2.5625 " clip-rule="nonzero"/></clipPath></defs><g clip-path="url(#90bc94cc9b)"><path fill="#ffffff" d="M 26.46875 2.566406 L 16.363281 30.871094 L 12.894531 29.972656 Z M 26.46875 2.566406 " fill-opacity="1" fill-rule="evenodd"/></g><path fill="#ffffff" d="M 18.414062 33.167969 L 16.679688 33.167969 L 24.074219 15.871094 Z M 18.414062 33.167969 " fill-opacity="1" fill-rule="evenodd"/><path fill="#ffffff" d="M 24.75 17.96875 L 21.054688 35.789062 L 19.546875 35.789062 Z M 24.75 17.96875 " fill-opacity="1" fill-rule="evenodd"/><path fill="#ffffff" d="M 26.507812 20.925781 L 28.351562 20.925781 L 28.351562 24.578125 L 26.507812 24.578125 Z M 26.507812 20.925781 " fill-opacity="1" fill-rule="evenodd"/><path fill="#ffffff" d="M 29.578125 20.925781 L 31.421875 20.925781 L 31.421875 24.578125 L 29.578125 24.578125 Z M 29.578125 20.925781 " fill-opacity="1" fill-rule="evenodd"/><path fill="#ffffff" d="M 26.507812 16.359375 L 28.351562 16.359375 L 28.351562 20.015625 L 26.507812 20.015625 Z M 26.507812 16.359375 " fill-opacity="1" fill-rule="evenodd"/><path fill="#ffffff" d="M 29.578125 16.359375 L 31.421875 16.359375 L 31.421875 20.015625 L 29.578125 20.015625 Z M 29.578125 16.359375 " fill-opacity="1" fill-rule="evenodd"/><g clip-path="url(#7e06e26167)"><path fill="#ffffff" d="M 91.96875 30.136719 L 44.90625 30.136719 L 27.480469 2.628906 L 83.898438 2.628906 L 86.4375 6.996094 L 67.230469 6.996094 L 71.90625 10.347656 L 70.800781 13.132812 L 90.007812 13.132812 L 99.894531 30.136719 L 94.835938 30.136719 L 97.9375 35.46875 L 91.046875 35.46875 L 93.28125 39.304688 L 38.832031 39.304688 L 36.609375 28.320312 L 40.496094 37.351562 L 89.277344 37.351562 L 88.179688 35.46875 L 41.488281 35.46875 L 34.546875 19.738281 L 43.148438 33.515625 L 93.9375 33.515625 Z M 91.96875 30.136719 " fill-opacity="1" fill-rule="evenodd"/></g><g fill="#ffffff" fill-opacity="1"><g transform="translate(29.062053, 51.203083)"><g><path d="M 1.390625 0 C 1.242188 0 1.132812 -0.03125 1.0625 -0.09375 C 1 -0.164062 0.96875 -0.273438 0.96875 -0.421875 L 0.96875 -7.671875 C 0.96875 -7.828125 1 -7.9375 1.0625 -8 C 1.132812 -8.070312 1.242188 -8.109375 1.390625 -8.109375 L 3.59375 -8.109375 C 4.5 -8.109375 5.171875 -7.921875 5.609375 -7.546875 C 6.054688 -7.179688 6.28125 -6.6875 6.28125 -6.0625 C 6.28125 -5.664062 6.160156 -5.304688 5.921875 -4.984375 C 5.679688 -4.660156 5.382812 -4.429688 5.03125 -4.296875 L 5.03125 -4.25 C 5.257812 -4.207031 5.492188 -4.101562 5.734375 -3.9375 C 5.984375 -3.769531 6.191406 -3.546875 6.359375 -3.265625 C 6.535156 -2.992188 6.625 -2.6875 6.625 -2.34375 C 6.625 -1.570312 6.375 -0.988281 5.875 -0.59375 C 5.382812 -0.195312 4.65625 0 3.6875 0 Z M 3.46875 -4.78125 C 3.851562 -4.78125 4.15625 -4.878906 4.375 -5.078125 C 4.601562 -5.273438 4.71875 -5.523438 4.71875 -5.828125 C 4.71875 -6.484375 4.300781 -6.8125 3.46875 -6.8125 L 2.484375 -6.8125 L 2.484375 -4.78125 Z M 3.8125 -1.296875 C 4.207031 -1.296875 4.515625 -1.394531 4.734375 -1.59375 C 4.953125 -1.789062 5.0625 -2.070312 5.0625 -2.4375 C 5.0625 -2.769531 4.9375 -3.023438 4.6875 -3.203125 C 4.4375 -3.390625 4.082031 -3.484375 3.625 -3.484375 L 2.484375 -3.484375 L 2.484375 -1.296875 Z M 3.8125 -1.296875 "/></g></g></g><g fill="#ffffff" fill-opacity="1"><g transform="translate(35.92358, 51.203083)"><g><path d="M 3.3125 0.078125 C 2.40625 0.078125 1.71875 -0.1875 1.25 -0.71875 C 0.78125 -1.25 0.546875 -2.015625 0.546875 -3.015625 C 0.546875 -4.023438 0.78125 -4.796875 1.25 -5.328125 C 1.71875 -5.867188 2.40625 -6.140625 3.3125 -6.140625 C 4.207031 -6.140625 4.890625 -5.867188 5.359375 -5.328125 C 5.828125 -4.796875 6.0625 -4.023438 6.0625 -3.015625 C 6.0625 -2.003906 5.828125 -1.234375 5.359375 -0.703125 C 4.890625 -0.179688 4.207031 0.078125 3.3125 0.078125 Z M 3.296875 -1.09375 C 3.734375 -1.09375 4.050781 -1.25 4.25 -1.5625 C 4.457031 -1.882812 4.5625 -2.375 4.5625 -3.03125 C 4.5625 -3.675781 4.457031 -4.160156 4.25 -4.484375 C 4.050781 -4.804688 3.734375 -4.96875 3.296875 -4.96875 C 2.867188 -4.96875 2.550781 -4.804688 2.34375 -4.484375 C 2.132812 -4.160156 2.03125 -3.675781 2.03125 -3.03125 C 2.03125 -2.375 2.132812 -1.882812 2.34375 -1.5625 C 2.550781 -1.25 2.867188 -1.09375 3.296875 -1.09375 Z M 3.296875 -1.09375 "/></g></g></g><g fill="#ffffff" fill-opacity="1"><g transform="translate(42.507405, 51.203083)"><g><path d="M 3.3125 0.078125 C 2.40625 0.078125 1.71875 -0.1875 1.25 -0.71875 C 0.78125 -1.25 0.546875 -2.015625 0.546875 -3.015625 C 0.546875 -4.023438 0.78125 -4.796875 1.25 -5.328125 C 1.71875 -5.867188 2.40625 -6.140625 3.3125 -6.140625 C 4.207031 -6.140625 4.890625 -5.867188 5.359375 -5.328125 C 5.828125 -4.796875 6.0625 -4.023438 6.0625 -3.015625 C 6.0625 -2.003906 5.828125 -1.234375 5.359375 -0.703125 C 4.890625 -0.179688 4.207031 0.078125 3.3125 0.078125 Z M 3.296875 -1.09375 C 3.734375 -1.09375 4.050781 -1.25 4.25 -1.5625 C 4.457031 -1.882812 4.5625 -2.375 4.5625 -3.03125 C 4.5625 -3.675781 4.457031 -4.160156 4.25 -4.484375 C 4.050781 -4.804688 3.734375 -4.96875 3.296875 -4.96875 C 2.867188 -4.96875 2.550781 -4.804688 2.34375 -4.484375 C 2.132812 -4.160156 2.03125 -3.675781 2.03125 -3.03125 C 2.03125 -2.375 2.132812 -1.882812 2.34375 -1.5625 C 2.550781 -1.25 2.867188 -1.09375 3.296875 -1.09375 Z M 3.296875 -1.09375 "/></g></g></g><g fill="#ffffff" fill-opacity="1"><g transform="translate(49.091231, 51.203083)"><g><path d="M 5.75 -0.375 C 5.8125 -0.28125 5.84375 -0.207031 5.84375 -0.15625 C 5.84375 -0.0390625 5.640625 0.015625 5.234375 0.015625 L 4.90625 0.015625 C 4.726562 0.015625 4.582031 0.00390625 4.46875 -0.015625 C 4.363281 -0.046875 4.285156 -0.0976562 4.234375 -0.171875 L 2.390625 -2.859375 L 2.34375 -2.859375 L 2.34375 -0.3125 C 2.34375 -0.09375 2.132812 0.015625 1.71875 0.015625 L 1.5 0.015625 C 1.082031 0.015625 0.875 -0.09375 0.875 -0.3125 L 0.875 -8.390625 C 0.875 -8.609375 1.082031 -8.71875 1.5 -8.71875 L 1.71875 -8.71875 C 2.132812 -8.71875 2.34375 -8.609375 2.34375 -8.390625 L 2.34375 -3.59375 L 2.390625 -3.59375 L 4.0625 -5.875 C 4.113281 -5.957031 4.191406 -6.007812 4.296875 -6.03125 C 4.410156 -6.0625 4.554688 -6.078125 4.734375 -6.078125 L 5.03125 -6.078125 C 5.21875 -6.078125 5.359375 -6.0625 5.453125 -6.03125 C 5.546875 -6 5.59375 -5.960938 5.59375 -5.921875 C 5.59375 -5.859375 5.554688 -5.78125 5.484375 -5.6875 L 3.703125 -3.296875 Z M 5.75 -0.375 "/></g></g></g><g fill="#ffffff" fill-opacity="1"><g transform="translate(55.119653, 51.203083)"><g/></g></g><g fill="#ffffff" fill-opacity="1"><g transform="translate(57.896664, 51.203083)"><g><path d="M 2.921875 0.078125 C 2.410156 0.078125 1.953125 0.0234375 1.546875 -0.078125 C 1.140625 -0.191406 0.828125 -0.328125 0.609375 -0.484375 C 0.410156 -0.628906 0.3125 -0.757812 0.3125 -0.875 C 0.3125 -1.019531 0.390625 -1.203125 0.546875 -1.421875 C 0.703125 -1.648438 0.828125 -1.765625 0.921875 -1.765625 C 0.972656 -1.765625 1.070312 -1.71875 1.21875 -1.625 C 1.457031 -1.507812 1.691406 -1.410156 1.921875 -1.328125 C 2.148438 -1.253906 2.421875 -1.21875 2.734375 -1.21875 C 3.078125 -1.21875 3.363281 -1.300781 3.59375 -1.46875 C 3.832031 -1.632812 3.953125 -1.882812 3.953125 -2.21875 C 3.953125 -2.425781 3.890625 -2.597656 3.765625 -2.734375 C 3.648438 -2.878906 3.503906 -3 3.328125 -3.09375 C 3.148438 -3.1875 2.90625 -3.300781 2.59375 -3.4375 L 2.1875 -3.609375 C 1.832031 -3.765625 1.535156 -3.925781 1.296875 -4.09375 C 1.054688 -4.269531 0.859375 -4.503906 0.703125 -4.796875 C 0.546875 -5.097656 0.46875 -5.472656 0.46875 -5.921875 C 0.46875 -6.398438 0.585938 -6.8125 0.828125 -7.15625 C 1.078125 -7.5 1.40625 -7.753906 1.8125 -7.921875 C 2.226562 -8.097656 2.675781 -8.1875 3.15625 -8.1875 C 3.507812 -8.1875 3.847656 -8.144531 4.171875 -8.0625 C 4.492188 -7.988281 4.742188 -7.882812 4.921875 -7.75 C 5.078125 -7.632812 5.15625 -7.519531 5.15625 -7.40625 C 5.15625 -7.269531 5.085938 -7.09375 4.953125 -6.875 C 4.828125 -6.65625 4.71875 -6.546875 4.625 -6.546875 C 4.582031 -6.546875 4.519531 -6.5625 4.4375 -6.59375 C 4.351562 -6.632812 4.285156 -6.664062 4.234375 -6.6875 C 3.929688 -6.820312 3.601562 -6.890625 3.25 -6.890625 C 2.832031 -6.890625 2.523438 -6.804688 2.328125 -6.640625 C 2.128906 -6.472656 2.03125 -6.265625 2.03125 -6.015625 C 2.03125 -5.785156 2.085938 -5.597656 2.203125 -5.453125 C 2.328125 -5.316406 2.472656 -5.203125 2.640625 -5.109375 C 2.804688 -5.023438 3.054688 -4.921875 3.390625 -4.796875 C 3.828125 -4.617188 4.1875 -4.441406 4.46875 -4.265625 C 4.757812 -4.097656 5.003906 -3.859375 5.203125 -3.546875 C 5.410156 -3.234375 5.515625 -2.832031 5.515625 -2.34375 C 5.515625 -1.539062 5.269531 -0.9375 4.78125 -0.53125 C 4.289062 -0.125 3.671875 0.078125 2.921875 0.078125 Z M 2.921875 0.078125 "/></g></g></g><g fill="#ffffff" fill-opacity="1"><g transform="translate(63.6821, 51.203083)"><g><path d="M 1.484375 0.015625 C 1.078125 0.015625 0.875 -0.09375 0.875 -0.3125 L 0.875 -8.390625 C 0.875 -8.609375 1.078125 -8.71875 1.484375 -8.71875 L 1.71875 -8.71875 C 2.125 -8.71875 2.328125 -8.609375 2.328125 -8.390625 L 2.328125 -5.34375 C 2.523438 -5.582031 2.769531 -5.773438 3.0625 -5.921875 C 3.363281 -6.066406 3.675781 -6.140625 4 -6.140625 C 4.550781 -6.140625 4.984375 -5.988281 5.296875 -5.6875 C 5.617188 -5.394531 5.78125 -4.921875 5.78125 -4.265625 L 5.78125 -0.3125 C 5.78125 -0.09375 5.578125 0.015625 5.171875 0.015625 L 4.9375 0.015625 C 4.53125 0.015625 4.328125 -0.09375 4.328125 -0.3125 L 4.328125 -4.0625 C 4.328125 -4.332031 4.25 -4.539062 4.09375 -4.6875 C 3.945312 -4.84375 3.726562 -4.921875 3.4375 -4.921875 C 3.175781 -4.921875 2.941406 -4.835938 2.734375 -4.671875 C 2.535156 -4.503906 2.398438 -4.347656 2.328125 -4.203125 L 2.328125 -0.3125 C 2.328125 -0.09375 2.125 0.015625 1.71875 0.015625 Z M 1.484375 0.015625 "/></g></g></g><g fill="#ffffff" fill-opacity="1"><g transform="translate(70.219643, 51.203083)"><g><path d="M 3.3125 0.078125 C 2.40625 0.078125 1.71875 -0.1875 1.25 -0.71875 C 0.78125 -1.25 0.546875 -2.015625 0.546875 -3.015625 C 0.546875 -4.023438 0.78125 -4.796875 1.25 -5.328125 C 1.71875 -5.867188 2.40625 -6.140625 3.3125 -6.140625 C 4.207031 -6.140625 4.890625 -5.867188 5.359375 -5.328125 C 5.828125 -4.796875 6.0625 -4.023438 6.0625 -3.015625 C 6.0625 -2.003906 5.828125 -1.234375 5.359375 -0.703125 C 4.890625 -0.179688 4.207031 0.078125 3.3125 0.078125 Z M 3.296875 -1.09375 C 3.734375 -1.09375 4.050781 -1.25 4.25 -1.5625 C 4.457031 -1.882812 4.5625 -2.375 4.5625 -3.03125 C 4.5625 -3.675781 4.457031 -4.160156 4.25 -4.484375 C 4.050781 -4.804688 3.734375 -4.96875 3.296875 -4.96875 C 2.867188 -4.96875 2.550781 -4.804688 2.34375 -4.484375 C 2.132812 -4.160156 2.03125 -3.675781 2.03125 -3.03125 C 2.03125 -2.375 2.132812 -1.882812 2.34375 -1.5625 C 2.550781 -1.25 2.867188 -1.09375 3.296875 -1.09375 Z M 3.296875 -1.09375 "/></g></g></g><g fill="#ffffff" fill-opacity="1"><g transform="translate(76.803469, 51.203083)"><g><path d="M 1.5 2.390625 C 1.28125 2.390625 1.117188 2.363281 1.015625 2.3125 C 0.921875 2.257812 0.875 2.175781 0.875 2.0625 L 0.875 -4.109375 C 0.875 -4.628906 0.847656 -5.007812 0.796875 -5.25 C 0.753906 -5.488281 0.734375 -5.632812 0.734375 -5.6875 C 0.734375 -5.789062 0.859375 -5.867188 1.109375 -5.921875 C 1.367188 -5.984375 1.597656 -6.015625 1.796875 -6.015625 C 1.921875 -6.015625 2.007812 -5.960938 2.0625 -5.859375 C 2.125 -5.753906 2.164062 -5.640625 2.1875 -5.515625 C 2.21875 -5.398438 2.238281 -5.316406 2.25 -5.265625 C 2.4375 -5.535156 2.671875 -5.75 2.953125 -5.90625 C 3.234375 -6.0625 3.546875 -6.140625 3.890625 -6.140625 C 4.328125 -6.140625 4.710938 -6.015625 5.046875 -5.765625 C 5.378906 -5.515625 5.632812 -5.148438 5.8125 -4.671875 C 6 -4.203125 6.09375 -3.648438 6.09375 -3.015625 C 6.09375 -2.054688 5.878906 -1.300781 5.453125 -0.75 C 5.023438 -0.195312 4.4375 0.078125 3.6875 0.078125 C 3.175781 0.078125 2.722656 -0.0664062 2.328125 -0.359375 L 2.328125 2.0625 C 2.328125 2.28125 2.125 2.390625 1.71875 2.390625 Z M 3.359375 -1.09375 C 4.179688 -1.09375 4.59375 -1.726562 4.59375 -3 C 4.59375 -3.632812 4.5 -4.113281 4.3125 -4.4375 C 4.132812 -4.769531 3.863281 -4.9375 3.5 -4.9375 C 3.269531 -4.9375 3.054688 -4.867188 2.859375 -4.734375 C 2.671875 -4.597656 2.492188 -4.421875 2.328125 -4.203125 L 2.328125 -1.421875 C 2.640625 -1.203125 2.984375 -1.09375 3.359375 -1.09375 Z M 3.359375 -1.09375 "/></g></g></g></svg>